<svg xmlns="http://www.w3.org/2000/svg" xmlns:xlink="http://www.w3.org/1999/xlink" contentStyleType="text/css" height="1083px" preserveAspectRatio="none" style="width:877px;height:1083px;background:#FFFFFF;" version="1.1" viewBox="0 0 877 1083" width="877px" zoomAndPan="magnify"><title>Atomic primitives &#8212; MEM_ADD / MEM_CAS (feature 0x02)</title><defs/><g><text fill="#000000" font-family="sans-serif" font-size="14" font-weight="bold" lengthAdjust="spacing" textLength="396.2545" x="236.4514" y="29.9659">Atomic primitives &#8212; MEM_ADD / MEM_CAS (feature 0x02)</text><line style="stroke:#181818;stroke-width:0.5;stroke-dasharray:5.0,5.0;" x1="36" x2="36" y1="98.2038" y2="1076.7963"/><line style="stroke:#181818;stroke-width:0.5;stroke-dasharray:5.0,5.0;" x1="333.3515" x2="333.3515" y1="98.2038" y2="1076.7963"/><line style="stroke:#181818;stroke-width:0.5;stroke-dasharray:5.0,5.0;" x1="630.7815" x2="630.7815" y1="98.2038" y2="1076.7963"/><rect fill="#E2E2F0" height="33.0679" rx="2.5" ry="2.5" style="stroke:#181818;stroke-width:0.5;" width="62.2018" x="5" y="64.1358"/><text fill="#000000" font-family="sans-serif" font-size="14" lengthAdjust="spacing" textLength="48.2018" x="12" y="86.1018">Node A</text><rect fill="#E2E2F0" height="52.1358" rx="2.5" ry="2.5" style="stroke:#181818;stroke-width:0.5;" width="176.3574" x="245.3515" y="45.0679"/><text fill="#000000" font-family="sans-serif" font-size="14" lengthAdjust="spacing" textLength="79.6037" x="293.7283" y="67.0339">Coordinator</text><text fill="#000000" font-family="sans-serif" font-size="14" lengthAdjust="spacing" textLength="162.3574" x="252.3515" y="86.1018">(serializes every request)</text><rect fill="#E2E2F0" height="33.0679" rx="2.5" ry="2.5" style="stroke:#181818;stroke-width:0.5;" width="62.3558" x="599.7815" y="64.1358"/><text fill="#000000" font-family="sans-serif" font-size="14" lengthAdjust="spacing" textLength="48.3558" x="606.7815" y="86.1018">Node B</text><rect fill="#EEEEEE" height="3" style="stroke:#EEEEEE;stroke-width:1.0;" width="870.1572" x="0" y="130.0568"/><line style="stroke:#000000;stroke-width:1.0;" x1="0" x2="870.1572" y1="130.0568" y2="130.0568"/><line style="stroke:#000000;stroke-width:1.0;" x1="0" x2="870.1572" y1="133.0568" y2="133.0568"/><rect fill="#EEEEEE" height="25.706" style="stroke:#000000;stroke-width:2.0;" width="321.7103" x="274.2235" y="118.2038"/><text fill="#000000" font-family="sans-serif" font-size="13" font-weight="bold" lengthAdjust="spacing" textLength="304.3303" x="280.2235" y="136.1008">MEM_ADD: read-modify-write in one round-trip</text><path d="M262,158.9098 L262,185.9098 L404,185.9098 L404,168.9098 L394,158.9098 L262,158.9098 " fill="#FEFFDD" style="stroke:#181818;stroke-width:0.5;"/><path d="M394,158.9098 L394,168.9098 L404,168.9098 L394,158.9098 " fill="#FEFFDD" style="stroke:#181818;stroke-width:0.5;"/><text fill="#000000" font-family="sans-serif" font-size="13" lengthAdjust="spacing" textLength="62.9331" x="268" y="177.8068">counter at</text><text fill="#000000" font-family="monospace" font-size="13" lengthAdjust="spacing" textLength="23.48" x="334.3131" y="178.5499">ref</text><text fill="#000000" font-family="sans-serif" font-size="13" lengthAdjust="spacing" textLength="27.833" x="361.173" y="177.8068">is 42</text><polygon fill="#181818" points="321.5302,211.3218,331.5302,215.3218,321.5302,219.3218,325.5302,215.3218" style="stroke:#181818;stroke-width:1.0;"/><line style="stroke:#181818;stroke-width:1.0;" x1="36.1009" x2="327.5302" y1="215.3218" y2="215.3218"/><text fill="#000000" font-family="sans-serif" font-size="13" lengthAdjust="spacing" textLength="187.5512" x="43.1009" y="209.5128">MEM_ADD [ref u32][delta = +1]</text><path d="M218,228.3218 L218,291.3218 L448,291.3218 L448,238.3218 L438,228.3218 L218,228.3218 " fill="#FEFFDD" style="stroke:#181818;stroke-width:0.5;"/><path d="M438,228.3218 L438,238.3218 L448,238.3218 L438,228.3218 " fill="#FEFFDD" style="stroke:#181818;stroke-width:0.5;"/><ellipse cx="229.5" cy="243.5278" fill="#000000" rx="2.5" ry="2.5" style="stroke:#000000;stroke-width:0.0;"/><text fill="#000000" font-family="sans-serif" font-size="13" lengthAdjust="spacing" textLength="102.5311" x="236" y="247.2188">ref += 1 happens</text><text fill="#000000" font-family="sans-serif" font-size="13" font-weight="bold" lengthAdjust="spacing" textLength="38.844" x="341.9111" y="247.2188">inside</text><text fill="#000000" font-family="sans-serif" font-size="13" lengthAdjust="spacing" textLength="20.059" x="384.1351" y="247.2188">the</text><text fill="#000000" font-family="sans-serif" font-size="13" lengthAdjust="spacing" textLength="209.1702" x="224" y="264.9248">coordinator's serialization window</text><text fill="#000000" font-family="sans-serif" font-size="13" lengthAdjust="spacing" textLength="179.5301" x="224" y="282.6308">&#8212; no lock, no lease, race-free</text><polygon fill="#181818" points="47.1009,316.1459,37.1009,320.1459,47.1009,324.1459,43.1009,320.1459" style="stroke:#181818;stroke-width:1.0;"/><line style="stroke:#181818;stroke-width:1.0;stroke-dasharray:2.0,2.0;" x1="41.1009" x2="332.5302" y1="320.1459" y2="320.1459"/><text fill="#000000" font-family="sans-serif" font-size="13" lengthAdjust="spacing" textLength="130.1301" x="53.1009" y="314.3369">MEM_DATA [old = 42]</text><polygon fill="#181818" points="344.5302,347.8519,334.5302,351.8519,344.5302,355.8519,340.5302,351.8519" style="stroke:#181818;stroke-width:1.0;"/><line style="stroke:#181818;stroke-width:1.0;" x1="338.5302" x2="629.9594" y1="351.8519" y2="351.8519"/><text fill="#000000" font-family="sans-serif" font-size="13" lengthAdjust="spacing" textLength="116.4021" x="350.5302" y="346.0429">MEM_ADD [ref][+1]</text><polygon fill="#181818" points="618.9594,379.5579,628.9594,383.5579,618.9594,387.5579,622.9594,383.5579" style="stroke:#181818;stroke-width:1.0;"/><line style="stroke:#181818;stroke-width:1.0;stroke-dasharray:2.0,2.0;" x1="333.5302" x2="624.9594" y1="383.5579" y2="383.5579"/><text fill="#000000" font-family="sans-serif" font-size="13" lengthAdjust="spacing" textLength="130.1301" x="340.5302" y="377.7489">MEM_DATA [old = 43]</text><path d="M635,396.5579 L635,494.5579 L865,494.5579 L865,406.5579 L855,396.5579 L635,396.5579 " fill="#FEFFDD" style="stroke:#181818;stroke-width:0.5;"/><path d="M855,396.5579 L855,406.5579 L865,406.5579 L855,396.5579 " fill="#FEFFDD" style="stroke:#181818;stroke-width:0.5;"/><text fill="#000000" font-family="sans-serif" font-size="13" lengthAdjust="spacing" textLength="146.3151" x="641" y="415.4549">One round-trip replaces</text><text fill="#000000" font-family="sans-serif" font-size="13" lengthAdjust="spacing" textLength="209.1572" x="641" y="433.1609">LOCK / READ / WRITE / UNLOCK &#8212;</text><text fill="#000000" font-family="sans-serif" font-size="13" lengthAdjust="spacing" textLength="202.0722" x="641" y="450.8669">measured 1.5 s vs 10.2 s (queued</text><text fill="#000000" font-family="sans-serif" font-size="13" lengthAdjust="spacing" textLength="150.2021" x="641" y="468.573">locks) for 150 contended</text><text fill="#000000" font-family="sans-serif" font-size="13" lengthAdjust="spacing" textLength="205.8422" x="641" y="486.279">increments on the 6-node swarm.</text><rect fill="#EEEEEE" height="3" style="stroke:#EEEEEE;stroke-width:1.0;" width="870.1572" x="0" y="521.941"/><line style="stroke:#000000;stroke-width:1.0;" x1="0" x2="870.1572" y1="521.941" y2="521.941"/><line style="stroke:#000000;stroke-width:1.0;" x1="0" x2="870.1572" y1="524.941" y2="524.941"/><rect fill="#EEEEEE" height="25.706" style="stroke:#000000;stroke-width:2.0;" width="386.0732" x="242.042" y="510.088"/><text fill="#000000" font-family="sans-serif" font-size="13" font-weight="bold" lengthAdjust="spacing" textLength="368.6932" x="248.042" y="527.985">MEM_CAS: optimistic update, the old value says who won</text><path d="M270,550.794 L270,577.794 L397,577.794 L397,560.794 L387,550.794 L270,550.794 " fill="#FEFFDD" style="stroke:#181818;stroke-width:0.5;"/><path d="M387,550.794 L387,560.794 L397,560.794 L387,550.794 " fill="#FEFFDD" style="stroke:#181818;stroke-width:0.5;"/><text fill="#000000" font-family="sans-serif" font-size="13" lengthAdjust="spacing" textLength="47.983" x="276" y="569.691">value at</text><text fill="#000000" font-family="monospace" font-size="13" lengthAdjust="spacing" textLength="23.48" x="327.363" y="570.4341">ref</text><text fill="#000000" font-family="sans-serif" font-size="13" lengthAdjust="spacing" textLength="27.833" x="354.223" y="569.691">is 44</text><polygon fill="#181818" points="321.5302,603.206,331.5302,607.206,321.5302,611.206,325.5302,607.206" style="stroke:#181818;stroke-width:1.0;"/><line style="stroke:#181818;stroke-width:1.0;" x1="36.1009" x2="327.5302" y1="607.206" y2="607.206"/><text fill="#000000" font-family="sans-serif" font-size="13" lengthAdjust="spacing" textLength="273.4293" x="43.1009" y="601.397">MEM_CAS [ref][expected = 44][desired = 100]</text><polygon fill="#181818" points="47.1009,634.912,37.1009,638.912,47.1009,642.912,43.1009,638.912" style="stroke:#181818;stroke-width:1.0;"/><line style="stroke:#181818;stroke-width:1.0;stroke-dasharray:2.0,2.0;" x1="41.1009" x2="332.5302" y1="638.912" y2="638.912"/><text fill="#000000" font-family="sans-serif" font-size="13" lengthAdjust="spacing" textLength="130.1301" x="53.1009" y="633.103">MEM_DATA [old = 44]</text><path d="M41,651.912 L41,696.912 L206,696.912 L206,661.912 L196,651.912 L41,651.912 " fill="#FEFFDD" style="stroke:#181818;stroke-width:0.5;"/><path d="M196,651.912 L196,661.912 L206,661.912 L196,651.912 " fill="#FEFFDD" style="stroke:#181818;stroke-width:0.5;"/><text fill="#000000" font-family="sans-serif" font-size="13" lengthAdjust="spacing" textLength="110.3441" x="47" y="670.8091">old == expected &#8594;</text><text fill="#000000" font-family="sans-serif" font-size="13" font-weight="bold" lengthAdjust="spacing" textLength="27.716" x="160.7241" y="670.8091">won</text><text fill="#000000" font-family="sans-serif" font-size="13" lengthAdjust="spacing" textLength="3.484" x="188.4401" y="670.8091">;</text><text fill="#000000" font-family="sans-serif" font-size="13" lengthAdjust="spacing" textLength="128.4531" x="47" y="688.5151">44 &#8594; 100 was written</text><polygon fill="#181818" points="344.5302,722.0301,334.5302,726.0301,344.5302,730.0301,340.5302,726.0301" style="stroke:#181818;stroke-width:1.0;"/><line style="stroke:#181818;stroke-width:1.0;" x1="338.5302" x2="629.9594" y1="726.0301" y2="726.0301"/><text fill="#000000" font-family="sans-serif" font-size="13" lengthAdjust="spacing" textLength="273.4293" x="350.5302" y="720.2211">MEM_CAS [ref][expected = 44][desired = 200]</text><polygon fill="#181818" points="618.9594,753.7361,628.9594,757.7361,618.9594,761.7361,622.9594,757.7361" style="stroke:#181818;stroke-width:1.0;"/><line style="stroke:#181818;stroke-width:1.0;stroke-dasharray:2.0,2.0;" x1="333.5302" x2="624.9594" y1="757.7361" y2="757.7361"/><text fill="#000000" font-family="sans-serif" font-size="13" lengthAdjust="spacing" textLength="137.5661" x="340.5302" y="751.9271">MEM_DATA [old = 100]</text><path d="M635,770.7361 L635,833.7361 L851,833.7361 L851,780.7361 L841,770.7361 L635,770.7361 " fill="#FEFFDD" style="stroke:#181818;stroke-width:0.5;"/><path d="M841,770.7361 L841,780.7361 L851,780.7361 L841,770.7361 " fill="#FEFFDD" style="stroke:#181818;stroke-width:0.5;"/><text fill="#000000" font-family="sans-serif" font-size="13" lengthAdjust="spacing" textLength="102.9081" x="641" y="789.6331">old &#8800; expected &#8594;</text><text fill="#000000" font-family="sans-serif" font-size="13" font-weight="bold" lengthAdjust="spacing" textLength="24.115" x="747.2881" y="789.6331">lost</text><text fill="#000000" font-family="sans-serif" font-size="13" lengthAdjust="spacing" textLength="58.3701" x="771.4031" y="789.6331">, memory</text><text fill="#000000" font-family="sans-serif" font-size="13" lengthAdjust="spacing" textLength="195.3642" x="641" y="807.3391">untouched; re-read, recompute,</text><text fill="#000000" font-family="sans-serif" font-size="13" lengthAdjust="spacing" textLength="61.009" x="641" y="825.0452">CAS again</text><rect fill="#EEEEEE" height="3" style="stroke:#EEEEEE;stroke-width:1.0;" width="870.1572" x="0" y="860.7072"/><line style="stroke:#000000;stroke-width:1.0;" x1="0" x2="870.1572" y1="860.7072" y2="860.7072"/><line style="stroke:#000000;stroke-width:1.0;" x1="0" x2="870.1572" y1="863.7072" y2="863.7072"/><rect fill="#EEEEEE" height="25.706" style="stroke:#000000;stroke-width:2.0;" width="187.6281" x="341.2645" y="848.8542"/><text fill="#000000" font-family="sans-serif" font-size="13" font-weight="bold" lengthAdjust="spacing" textLength="170.2481" x="347.2645" y="866.7512">Both respect explicit locks</text><polygon fill="#181818" points="344.5302,904.2662,334.5302,908.2662,344.5302,912.2662,340.5302,908.2662" style="stroke:#181818;stroke-width:1.0;"/><line style="stroke:#181818;stroke-width:1.0;" x1="338.5302" x2="629.9594" y1="908.2662" y2="908.2662"/><text fill="#000000" font-family="sans-serif" font-size="13" lengthAdjust="spacing" textLength="85.1111" x="350.5302" y="902.4572">LOCK [region]</text><polygon fill="#181818" points="618.9594,935.9722,628.9594,939.9722,618.9594,943.9722,622.9594,939.9722" style="stroke:#181818;stroke-width:1.0;"/><line style="stroke:#181818;stroke-width:1.0;stroke-dasharray:2.0,2.0;" x1="333.5302" x2="624.9594" y1="939.9722" y2="939.9722"/><text fill="#000000" font-family="sans-serif" font-size="13" lengthAdjust="spacing" textLength="149.5911" x="340.5302" y="934.1632">LOCK_GRANT [lease_ms]</text><polygon fill="#181818" points="321.5302,967.6782,331.5302,971.6782,321.5302,975.6782,325.5302,971.6782" style="stroke:#181818;stroke-width:1.0;"/><line style="stroke:#181818;stroke-width:1.0;" x1="36.1009" x2="327.5302" y1="971.6782" y2="971.6782"/><text fill="#000000" font-family="sans-serif" font-size="13" lengthAdjust="spacing" textLength="202.5922" x="43.1009" y="965.8692">MEM_ADD [ref in that region][+1]</text><polygon fill="#181818" points="47.1009,999.3842,37.1009,1003.3842,47.1009,1007.3842,43.1009,1003.3842" style="stroke:#181818;stroke-width:1.0;"/><line style="stroke:#181818;stroke-width:1.0;stroke-dasharray:2.0,2.0;" x1="41.1009" x2="332.5302" y1="1003.3842" y2="1003.3842"/><text fill="#000000" font-family="sans-serif" font-size="13" lengthAdjust="spacing" textLength="103.5191" x="53.1009" y="997.5752">ERROR [LOCKED]</text><path d="M41,1016.3842 L41,1061.3842 L314,1061.3842 L314,1026.3842 L304,1016.3842 L41,1016.3842 " fill="#FEFFDD" style="stroke:#181818;stroke-width:0.5;"/><path d="M304,1016.3842 L304,1026.3842 L314,1026.3842 L304,1016.3842 " fill="#FEFFDD" style="stroke:#181818;stroke-width:0.5;"/><text fill="#000000" font-family="sans-serif" font-size="13" lengthAdjust="spacing" textLength="252.8243" x="47" y="1035.2813">module sees WASP_REMOTE_ELOCKED &#8212;</text><text fill="#000000" font-family="sans-serif" font-size="13" lengthAdjust="spacing" textLength="238.1862" x="47" y="1052.9873">atomics compose with lock-based code</text><!--SRC=[ZLJBRXen5DtFLronQJB9f4185uceDC2egfg4Yb1b0GWvumjZPSQUsXu8NNLLgTkg7z1lovVqsf0NfLLN6D_7d7lEkRR2vWYnLOL8eTIY45OiqC3zrvzmaLnCuruFNljJDxw2lHaoMsc4-bszkHzaWYFCbB8twYumjqAMJBC2JCQuMWevXndB3GO1NLkHYf992xLBHKLn3PY1-6MagvJcGZAhz5Zk6TI2vU8BWS45wXLe_5oXiVk-jBkZQST7Ea7GRZzWFwKgngD2SJ5RHKijB8AGe2I2LfNaaTMYX7Ox2AIYaA8FGHTE8QMWfJEZtZMDireDX85MCmXYYDxwb0TsHXI6whWv6N7CBOCs73GcM-r2btFGXWPah2nH6WX38GtH5uPWCnpBz6dsLmOUPcTMA0b49V4vbauJgI1NwUsXFo0pU0YQfHZDD6BGXOZ0nHjmlNWOmqZbd22rcfCWwEo2FXavkElApgxAuyqmMimp2sf610FqNnAeiSm9XQ78UR_xWHmpI69ddEl1-s52lvyk_JrDG2a5uIOJSMWSdO21XO56_QX9fpqIk49EAMv6iq_Uqj0ugPCSf8RaFYHagh50QGt9wCY3Dv5qyfibqyLHG7dW03_QW8nx2ggqv6r3Ze6gvCmIRwxKpRXWUKNLR6LWcIbOKjS_3R5Esh93QyiERaNMdE9TYQb5Js3BESC8xVyrwlN9ltHgRRFjidoi3OzDxx_z80CHq30y6yjMorzGPrYI_vt9YQmjkVy3MlC9sYuZUEHRJjXWk__-QnjShemDmqFIkb1wDPQqJgfAC-HdP9R8BIKP5rDLb1LfCPOE7vip8Rri7MKp2XlNqdNEQT7jsXHUcyVHlAjehZdjoNFmxdxwRX1V3c7arsHQcCbVTbSu5v6ocoxFzi5ndmm6_G6CNCEajqiSUbigUa8DqaDr7Lzzd0wIY_umcIRh4kVviTjhUc0Dk86LGLff6j3D4zqGE4xt77y3]--></g></svg>