<svg xmlns="http://www.w3.org/2000/svg" xmlns:xlink="http://www.w3.org/1999/xlink" contentStyleType="text/css" height="1329px" preserveAspectRatio="none" style="width:784px;height:1329px;background:#FFFFFF;" version="1.1" viewBox="0 0 784 1329" width="784px" zoomAndPan="magnify"><title>Remote memory &#8212; node-initiated RPCs mid-CALL (feature 0x01)</title><defs/><g><text fill="#000000" font-family="sans-serif" font-size="14" font-weight="bold" lengthAdjust="spacing" textLength="445.1284" x="165.8582" y="29.9659">Remote memory &#8212; node-initiated RPCs mid-CALL (feature 0x01)</text><rect fill="#DDDDDD" height="1270.3584" style="stroke:#181818;stroke-width:0.5;" width="268.6691" x="337.5642" y="46.0679"/><text fill="#000000" font-family="sans-serif" font-size="13" font-weight="bold" lengthAdjust="spacing" textLength="69.55" x="437.1238" y="59.9649">wasp node</text><rect fill="#FFFFFF" height="685.9444" style="stroke:#181818;stroke-width:1.0;" width="10" x="532.7426" y="204.0278"/><rect fill="#FFFFFF" height="39.706" style="stroke:#FFFFFF;stroke-width:1.0;" width="10" x="532.7426" y="1048.5023"/><line style="stroke:#181818;stroke-width:1.0;" x1="532.7426" x2="532.7426" y1="1048.5023" y2="1088.2083"/><line style="stroke:#181818;stroke-width:1.0;" x1="542.7426" x2="542.7426" y1="1048.5023" y2="1088.2083"/><line style="stroke:#181818;stroke-width:1.0;" x1="532.7426" x2="542.7426" y1="1048.5023" y2="1048.5023"/><rect fill="#FFFFFF" height="86.118" style="stroke:#FFFFFF;stroke-width:1.0;" width="10" x="532.7426" y="1131.1902"/><line style="stroke:#181818;stroke-width:1.0;" x1="532.7426" x2="532.7426" y1="1131.1902" y2="1217.3083"/><line style="stroke:#181818;stroke-width:1.0;" x1="542.7426" x2="542.7426" y1="1131.1902" y2="1217.3083"/><line style="stroke:#181818;stroke-width:1.0;" x1="532.7426" x2="542.7426" y1="1217.3083" y2="1217.3083"/><line style="stroke:#181818;stroke-width:0.5;stroke-dasharray:5.0,5.0;" x1="72" x2="72" y1="120.9098" y2="1088.2083"/><line style="stroke:#A80036;stroke-width:1.0;stroke-dasharray:1.0,4.0;" x1="72" x2="72" y1="1088.2083" y2="1131.1902"/><line style="stroke:#181818;stroke-width:0.5;stroke-dasharray:5.0,5.0;" x1="72" x2="72" y1="1131.1902" y2="1322.4263"/><line style="stroke:#181818;stroke-width:0.5;stroke-dasharray:5.0,5.0;" x1="401.5642" x2="401.5642" y1="120.9098" y2="1088.2083"/><line style="stroke:#A80036;stroke-width:1.0;stroke-dasharray:1.0,4.0;" x1="401.5642" x2="401.5642" y1="1088.2083" y2="1131.1902"/><line style="stroke:#181818;stroke-width:0.5;stroke-dasharray:5.0,5.0;" x1="401.5642" x2="401.5642" y1="1131.1902" y2="1322.4263"/><line style="stroke:#181818;stroke-width:0.5;stroke-dasharray:5.0,5.0;" x1="537.2518" x2="537.2518" y1="120.9098" y2="1088.2083"/><line style="stroke:#A80036;stroke-width:1.0;stroke-dasharray:1.0,4.0;" x1="537.2518" x2="537.2518" y1="1088.2083" y2="1131.1902"/><line style="stroke:#181818;stroke-width:0.5;stroke-dasharray:5.0,5.0;" x1="537.2518" x2="537.2518" y1="1131.1902" y2="1322.4263"/><rect fill="#E2E2F0" height="52.1358" rx="2.5" ry="2.5" style="stroke:#181818;stroke-width:0.5;" width="135.8415" x="5" y="67.7739"/><text fill="#000000" font-family="sans-serif" font-size="14" lengthAdjust="spacing" textLength="79.6037" x="33.1189" y="89.7399">Coordinator</text><text fill="#000000" font-family="sans-serif" font-size="14" lengthAdjust="spacing" textLength="121.8415" x="12" y="108.8078">(owns the regions)</text><rect fill="#E2E2F0" height="33.0679" rx="2.5" ry="2.5" style="stroke:#181818;stroke-width:0.5;" width="121.6876" x="341.5642" y="86.8419"/><text fill="#000000" font-family="sans-serif" font-size="14" lengthAdjust="spacing" textLength="107.6876" x="348.5642" y="108.8078">network + agent</text><rect fill="#E2E2F0" height="52.1358" rx="2.5" ry="2.5" style="stroke:#181818;stroke-width:0.5;" width="128.9815" x="473.2518" y="67.7739"/><text fill="#000000" font-family="sans-serif" font-size="14" lengthAdjust="spacing" textLength="57.8758" x="508.8047" y="89.7399">executor</text><text fill="#000000" font-family="sans-serif" font-size="14" lengthAdjust="spacing" textLength="114.9815" x="480.2518" y="108.8078">(module running)</text><rect fill="#FFFFFF" height="685.9444" style="stroke:#181818;stroke-width:1.0;" width="10" x="532.7426" y="204.0278"/><rect fill="#FFFFFF" height="39.706" style="stroke:#FFFFFF;stroke-width:1.0;" width="10" x="532.7426" y="1048.5023"/><line style="stroke:#181818;stroke-width:1.0;" x1="532.7426" x2="532.7426" y1="1048.5023" y2="1088.2083"/><line style="stroke:#181818;stroke-width:1.0;" x1="542.7426" x2="542.7426" y1="1048.5023" y2="1088.2083"/><line style="stroke:#181818;stroke-width:1.0;" x1="532.7426" x2="542.7426" y1="1048.5023" y2="1048.5023"/><rect fill="#FFFFFF" height="86.118" style="stroke:#FFFFFF;stroke-width:1.0;" width="10" x="532.7426" y="1131.1902"/><line style="stroke:#181818;stroke-width:1.0;" x1="532.7426" x2="532.7426" y1="1131.1902" y2="1217.3083"/><line style="stroke:#181818;stroke-width:1.0;" x1="542.7426" x2="542.7426" y1="1131.1902" y2="1217.3083"/><line style="stroke:#181818;stroke-width:1.0;" x1="532.7426" x2="542.7426" y1="1217.3083" y2="1217.3083"/><polygon fill="#181818" points="390.408,168.3218,400.408,172.3218,390.408,176.3218,394.408,172.3218" style="stroke:#181818;stroke-width:1.0;"/><line style="stroke:#181818;stroke-width:1.0;" x1="72.9208" x2="396.408" y1="172.3218" y2="172.3218"/><text fill="#000000" font-family="sans-serif" font-size="13" lengthAdjust="spacing" textLength="135.7721" x="79.9208" y="148.8068">CALL "scale" [ref][n][k]</text><text fill="#000000" font-family="sans-serif" font-size="13" lengthAdjust="spacing" textLength="152.2951" x="79.9208" y="166.5128">(coordinator's seq space)</text><polygon fill="#181818" points="520.7426,200.0278,530.7426,204.0278,520.7426,208.0278,524.7426,204.0278" style="stroke:#181818;stroke-width:1.0;"/><line style="stroke:#181818;stroke-width:1.0;" x1="402.408" x2="526.7426" y1="204.0278" y2="204.0278"/><text fill="#000000" font-family="sans-serif" font-size="13" lengthAdjust="spacing" textLength="69.888" x="409.408" y="198.2188">exec queue</text><path d="M9,217.0278 L9,315.0278 L601,315.0278 L601,227.0278 L591,217.0278 L9,217.0278 " fill="#FEFFDD" style="stroke:#181818;stroke-width:0.5;"/><path d="M591,217.0278 L591,227.0278 L601,227.0278 L591,217.0278 " fill="#FEFFDD" style="stroke:#181818;stroke-width:0.5;"/><text fill="#000000" font-family="sans-serif" font-size="13" lengthAdjust="spacing" textLength="196.4172" x="75.632" y="235.9248">From here the roles reverse: the</text><text fill="#000000" font-family="sans-serif" font-size="13" font-weight="bold" lengthAdjust="spacing" textLength="32.5" x="275.4291" y="235.9248">node</text><text fill="#000000" font-family="sans-serif" font-size="13" lengthAdjust="spacing" textLength="186.4982" x="311.3092" y="235.9248">asks, the coordinator answers.</text><text fill="#000000" font-family="sans-serif" font-size="13" lengthAdjust="spacing" textLength="448.1233" x="75.632" y="253.6308">0x4x requests use the node's own seq space, so both directions share the</text><text fill="#000000" font-family="sans-serif" font-size="13" lengthAdjust="spacing" textLength="449.9694" x="75.632" y="271.3369">one TCP connection without ambiguity. Each request below transits the tx</text><text fill="#000000" font-family="sans-serif" font-size="13" lengthAdjust="spacing" textLength="429.7543" x="75.632" y="289.0429">queue and blocks the executor on the RPC slot until the reply is routed</text><text fill="#000000" font-family="sans-serif" font-size="13" lengthAdjust="spacing" textLength="315.6013" x="75.632" y="306.7489">back (or CONFIG_WASP_RPC_TIMEOUT_MS expires).</text><polygon fill="#181818" points="83.9208,340.2639,73.9208,344.2639,83.9208,348.2639,79.9208,344.2639" style="stroke:#181818;stroke-width:1.0;"/><line style="stroke:#181818;stroke-width:1.0;" x1="77.9208" x2="531.7426" y1="344.2639" y2="344.2639"/><text fill="#000000" font-family="sans-serif" font-size="13" lengthAdjust="spacing" textLength="138.0601" x="89.9208" y="338.4549">REGION_INFO [region]</text><polygon fill="#181818" points="520.7426,371.9699,530.7426,375.9699,520.7426,379.9699,524.7426,375.9699" style="stroke:#181818;stroke-width:1.0;"/><line style="stroke:#181818;stroke-width:1.0;stroke-dasharray:2.0,2.0;" x1="72.9208" x2="526.7426" y1="375.9699" y2="375.9699"/><text fill="#000000" font-family="sans-serif" font-size="13" lengthAdjust="spacing" textLength="164.7232" x="79.9208" y="370.1609">REGION_DESC [length u32]</text><polygon fill="#181818" points="83.9208,403.6759,73.9208,407.6759,83.9208,411.6759,79.9208,407.6759" style="stroke:#181818;stroke-width:1.0;"/><line style="stroke:#181818;stroke-width:1.0;" x1="77.9208" x2="531.7426" y1="407.6759" y2="407.6759"/><text fill="#000000" font-family="sans-serif" font-size="13" lengthAdjust="spacing" textLength="85.1111" x="89.9208" y="401.8669">LOCK [region]</text><polygon fill="#181818" points="520.7426,435.382,530.7426,439.382,520.7426,443.382,524.7426,439.382" style="stroke:#181818;stroke-width:1.0;"/><line style="stroke:#181818;stroke-width:1.0;stroke-dasharray:2.0,2.0;" x1="72.9208" x2="526.7426" y1="439.382" y2="439.382"/><text fill="#000000" font-family="sans-serif" font-size="13" lengthAdjust="spacing" textLength="175.8772" x="79.9208" y="433.573">LOCK_GRANT [lease_ms u32]</text><path d="M77,452.382 L77,515.382 L289,515.382 L289,462.382 L279,452.382 L77,452.382 " fill="#FEFFDD" style="stroke:#181818;stroke-width:0.5;"/><path d="M279,452.382 L279,462.382 L289,462.382 L279,452.382 " fill="#FEFFDD" style="stroke:#181818;stroke-width:0.5;"/><text fill="#000000" font-family="sans-serif" font-size="13" lengthAdjust="spacing" textLength="88.2701" x="83" y="471.279">lock state lives</text><text fill="#000000" font-family="sans-serif" font-size="13" font-weight="bold" lengthAdjust="spacing" textLength="27.95" x="174.6501" y="471.279">only</text><text fill="#000000" font-family="sans-serif" font-size="13" lengthAdjust="spacing" textLength="31.551" x="205.9801" y="471.279">here;</text><text fill="#000000" font-family="sans-serif" font-size="13" lengthAdjust="spacing" textLength="191.0482" x="83" y="488.985">the grant is a lease &#8212; it expires</text><text fill="#000000" font-family="sans-serif" font-size="13" lengthAdjust="spacing" textLength="155.5972" x="83" y="506.691">if the node dies holding it</text><polygon fill="#181818" points="83.9208,540.206,73.9208,544.206,83.9208,548.206,79.9208,544.206" style="stroke:#181818;stroke-width:1.0;"/><line style="stroke:#181818;stroke-width:1.0;" x1="77.9208" x2="531.7426" y1="544.206" y2="544.206"/><text fill="#000000" font-family="sans-serif" font-size="13" lengthAdjust="spacing" textLength="178.6462" x="89.9208" y="538.397">MEM_READ [ref u32][len u32]</text><polygon fill="#181818" points="520.7426,571.912,530.7426,575.912,520.7426,579.912,524.7426,575.912" style="stroke:#181818;stroke-width:1.0;"/><line style="stroke:#181818;stroke-width:1.0;stroke-dasharray:2.0,2.0;" x1="72.9208" x2="526.7426" y1="575.912" y2="575.912"/><text fill="#000000" font-family="sans-serif" font-size="13" lengthAdjust="spacing" textLength="136.8251" x="79.9208" y="570.103">MEM_DATA [len bytes]</text><path d="M77,588.912 L77,633.912 L306,633.912 L306,598.912 L296,588.912 L77,588.912 " fill="#FEFFDD" style="stroke:#181818;stroke-width:0.5;"/><path d="M296,588.912 L296,598.912 L306,598.912 L296,588.912 " fill="#FEFFDD" style="stroke:#181818;stroke-width:0.5;"/><text fill="#000000" font-family="sans-serif" font-size="13" lengthAdjust="spacing" textLength="208.7542" x="83" y="607.8091">bounds-checked on the node first,</text><text fill="#000000" font-family="sans-serif" font-size="13" lengthAdjust="spacing" textLength="151.5151" x="83" y="625.5151">then authoritatively here</text><line style="stroke:#181818;stroke-width:1.0;" x1="542.7426" x2="584.7426" y1="663.0301" y2="663.0301"/><line style="stroke:#181818;stroke-width:1.0;" x1="584.7426" x2="584.7426" y1="663.0301" y2="676.0301"/><line style="stroke:#181818;stroke-width:1.0;" x1="543.7426" x2="584.7426" y1="676.0301" y2="676.0301"/><polygon fill="#181818" points="553.7426,672.0301,543.7426,676.0301,553.7426,680.0301,549.7426,676.0301" style="stroke:#181818;stroke-width:1.0;"/><text fill="#000000" font-family="sans-serif" font-size="13" lengthAdjust="spacing" textLength="121.8881" x="549.7426" y="657.2211">compute: buf[i] *= k</text><polygon fill="#181818" points="83.9208,703.7361,73.9208,707.7361,83.9208,711.7361,79.9208,707.7361" style="stroke:#181818;stroke-width:1.0;"/><line style="stroke:#181818;stroke-width:1.0;" x1="77.9208" x2="531.7426" y1="707.7361" y2="707.7361"/><text fill="#000000" font-family="sans-serif" font-size="13" lengthAdjust="spacing" textLength="172.4452" x="89.9208" y="701.9271">MEM_WRITE [ref u32][bytes]</text><polygon fill="#181818" points="520.7426,735.4421,530.7426,739.4421,520.7426,743.4421,524.7426,739.4421" style="stroke:#181818;stroke-width:1.0;"/><line style="stroke:#181818;stroke-width:1.0;stroke-dasharray:2.0,2.0;" x1="72.9208" x2="526.7426" y1="739.4421" y2="739.4421"/><text fill="#000000" font-family="sans-serif" font-size="13" lengthAdjust="spacing" textLength="61.1521" x="79.9208" y="733.6331">MEM_ACK</text><path d="M77,752.4421 L77,797.4421 L307,797.4421 L307,762.4421 L297,752.4421 L77,752.4421 " fill="#FEFFDD" style="stroke:#181818;stroke-width:0.5;"/><path d="M297,752.4421 L297,762.4421 L307,762.4421 L297,752.4421 " fill="#FEFFDD" style="stroke:#181818;stroke-width:0.5;"/><text fill="#000000" font-family="sans-serif" font-size="13" lengthAdjust="spacing" textLength="177.2422" x="83" y="771.3391">the write lands directly in the</text><text fill="#000000" font-family="sans-serif" font-size="13" lengthAdjust="spacing" textLength="209.4562" x="83" y="789.0452">coordinator's registered bytearray</text><polygon fill="#181818" points="83.9208,822.5602,73.9208,826.5602,83.9208,830.5602,79.9208,826.5602" style="stroke:#181818;stroke-width:1.0;"/><line style="stroke:#181818;stroke-width:1.0;" x1="77.9208" x2="531.7426" y1="826.5602" y2="826.5602"/><text fill="#000000" font-family="sans-serif" font-size="13" lengthAdjust="spacing" textLength="104.4941" x="89.9208" y="820.7512">UNLOCK [region]</text><polygon fill="#181818" points="520.7426,854.2662,530.7426,858.2662,520.7426,862.2662,524.7426,858.2662" style="stroke:#181818;stroke-width:1.0;"/><line style="stroke:#181818;stroke-width:1.0;stroke-dasharray:2.0,2.0;" x1="72.9208" x2="526.7426" y1="858.2662" y2="858.2662"/><text fill="#000000" font-family="sans-serif" font-size="13" lengthAdjust="spacing" textLength="61.1521" x="79.9208" y="852.4572">MEM_ACK</text><polygon fill="#181818" points="413.408,885.9722,403.408,889.9722,413.408,893.9722,409.408,889.9722" style="stroke:#181818;stroke-width:1.0;"/><line style="stroke:#181818;stroke-width:1.0;stroke-dasharray:2.0,2.0;" x1="407.408" x2="536.7426" y1="889.9722" y2="889.9722"/><text fill="#000000" font-family="sans-serif" font-size="13" lengthAdjust="spacing" textLength="49.3221" x="419.408" y="884.1632">tx msgq</text><polygon fill="#181818" points="83.9208,935.3842,73.9208,939.3842,83.9208,943.3842,79.9208,939.3842" style="stroke:#181818;stroke-width:1.0;"/><line style="stroke:#181818;stroke-width:1.0;stroke-dasharray:2.0,2.0;" x1="77.9208" x2="401.408" y1="939.3842" y2="939.3842"/><text fill="#000000" font-family="sans-serif" font-size="13" lengthAdjust="spacing" textLength="174.7852" x="89.9208" y="915.8692">RESULT [WASP_REMOTE_OK]</text><text fill="#000000" font-family="sans-serif" font-size="13" lengthAdjust="spacing" textLength="149.5521" x="89.9208" y="933.5752">(answers the CALL's seq)</text><rect fill="#EEEEEE" height="3" style="stroke:#EEEEEE;stroke-width:1.0;" width="777.8448" x="0" y="969.2373"/><line style="stroke:#000000;stroke-width:1.0;" x1="0" x2="777.8448" y1="969.2373" y2="969.2373"/><line style="stroke:#000000;stroke-width:1.0;" x1="0" x2="777.8448" y1="972.2373" y2="972.2373"/><rect fill="#EEEEEE" height="25.706" style="stroke:#000000;stroke-width:2.0;" width="261.3772" x="258.2338" y="957.3842"/><text fill="#000000" font-family="sans-serif" font-size="13" font-weight="bold" lengthAdjust="spacing" textLength="243.9972" x="264.2338" y="975.2813">If the coordinator goes silent mid-call</text><polygon fill="#181818" points="390.408,1012.7963,400.408,1016.7963,390.408,1020.7963,394.408,1016.7963" style="stroke:#181818;stroke-width:1.0;"/><line style="stroke:#181818;stroke-width:1.0;" x1="72.9208" x2="396.408" y1="1016.7963" y2="1016.7963"/><text fill="#000000" font-family="sans-serif" font-size="13" lengthAdjust="spacing" textLength="88.2441" x="79.9208" y="1010.9873">CALL "scale" &#8230;</text><polygon fill="#181818" points="520.7426,1044.5023,530.7426,1048.5023,520.7426,1052.5023,524.7426,1048.5023" style="stroke:#181818;stroke-width:1.0;"/><line style="stroke:#181818;stroke-width:1.0;" x1="402.408" x2="526.7426" y1="1048.5023" y2="1048.5023"/><text fill="#000000" font-family="sans-serif" font-size="13" lengthAdjust="spacing" textLength="69.888" x="409.408" y="1042.6933">exec queue</text><polygon fill="#181818" points="83.9208,1076.2083,73.9208,1080.2083,83.9208,1084.2083,79.9208,1080.2083" style="stroke:#181818;stroke-width:1.0;"/><line style="stroke:#181818;stroke-width:1.0;" x1="77.9208" x2="531.7426" y1="1080.2083" y2="1080.2083"/><text fill="#000000" font-family="sans-serif" font-size="13" lengthAdjust="spacing" textLength="126.0741" x="89.9208" y="1074.3993">MEM_READ [ref][len]</text><text fill="#000000" font-family="sans-serif" font-size="11" lengthAdjust="spacing" textLength="285.7559" x="162.4537" y="1113.9672">CONFIG_WASP_RPC_TIMEOUT_MS (5 s) passes, no reply</text><line style="stroke:#181818;stroke-width:1.0;" x1="542.7426" x2="584.7426" y1="1172.6022" y2="1172.6022"/><line style="stroke:#181818;stroke-width:1.0;" x1="584.7426" x2="584.7426" y1="1172.6022" y2="1185.6022"/><line style="stroke:#181818;stroke-width:1.0;" x1="543.7426" x2="584.7426" y1="1185.6022" y2="1185.6022"/><polygon fill="#181818" points="553.7426,1181.6022,543.7426,1185.6022,553.7426,1189.6022,549.7426,1185.6022" style="stroke:#181818;stroke-width:1.0;"/><text fill="#000000" font-family="sans-serif" font-size="13" lengthAdjust="spacing" textLength="206.1022" x="549.7426" y="1149.0872">host call raises a WASM exception</text><text fill="#000000" font-family="sans-serif" font-size="13" lengthAdjust="spacing" textLength="86.5541" x="549.7426" y="1166.7932">&#8212; the module</text><text fill="#000000" font-family="sans-serif" font-size="13" font-weight="bold" lengthAdjust="spacing" textLength="34.086" x="639.6767" y="1166.7932">traps</text><polygon fill="#181818" points="413.408,1213.3083,403.408,1217.3083,413.408,1221.3083,409.408,1217.3083" style="stroke:#181818;stroke-width:1.0;"/><line style="stroke:#181818;stroke-width:1.0;stroke-dasharray:2.0,2.0;" x1="407.408" x2="536.7426" y1="1217.3083" y2="1217.3083"/><text fill="#000000" font-family="sans-serif" font-size="13" lengthAdjust="spacing" textLength="49.3221" x="419.408" y="1211.4992">tx msgq</text><polygon fill="#181818" points="83.9208,1245.0143,73.9208,1249.0143,83.9208,1253.0143,79.9208,1249.0143" style="stroke:#181818;stroke-width:1.0;"/><line style="stroke:#181818;stroke-width:1.0;stroke-dasharray:2.0,2.0;" x1="77.9208" x2="401.408" y1="1249.0143" y2="1249.0143"/><text fill="#000000" font-family="sans-serif" font-size="13" lengthAdjust="spacing" textLength="305.4873" x="89.9208" y="1243.2053">ERROR [TRAP, "wasp: remote memory RPC failed"]</text><path d="M296,1262.0143 L296,1307.0143 L507,1307.0143 L507,1272.0143 L497,1262.0143 L296,1262.0143 " fill="#FEFFDD" style="stroke:#181818;stroke-width:0.5;"/><path d="M497,1262.0143 L497,1272.0143 L507,1272.0143 L497,1262.0143 " fill="#FEFFDD" style="stroke:#181818;stroke-width:0.5;"/><text fill="#000000" font-family="sans-serif" font-size="13" lengthAdjust="spacing" textLength="168.1422" x="302" y="1280.9113">the node carries on; a hung</text><text fill="#000000" font-family="sans-serif" font-size="13" lengthAdjust="spacing" textLength="190.6192" x="302" y="1298.6173">coordinator can never wedge it</text><!--SRC=[ZLN1RkCs4BthAmQ-D5OT8sstbonSm52Km4Wi1ug3FTY6GKiZYR14AYGLsRVzY7v3Fso_f4DAQUmss_PacEJCl9dtvibmKoB4M4c3KD6FEiAthx-3a2bUSi4DPmPJY1y33HLFBuFfmmDSPCXCen2k3bS_3Rs2fmYPb6Od3vxUSr4pnIhG1KjboqKE6IirUXuT6vxmcWa3Wq1AbNB1Z5HhSI5ReS4K20fpBeKU3e1f23pA28EMwTe16fod46XQgVRm8x0SXN4XqVaJF63IT2KgcJRKgcg484nTWT13aOA5xGLm-Hj4S0skmu5EM8a3M2dCDYknMUqtb29vn_o31eqle6kMuD2BR718mROUl3JOeCSImrzfU5J44tQwyXKL12Fw3t2hP0K5qWXTqx94JQtJ0utNxiZtRSE-JoZtUkIEJge34xgbnsDATNNuTA1OAggDXaPtAMqqOQIvlkCSWPRKh2aWvGe97WtQijIXe5HI82o3HweaH7SFBJU5R0omQiVpXflZ64AM56y5OOUbRC4e0iHDHw4vK2et0u99qorbikzktjYWGku_gGfqAGqqml2ovxykZy1f6bGLKygqOyaUBYWeM4Itixljb-dJuvOYjylPF5myBxVp9qfSKqTwE7PyscbxNcWv2OYJEBoRBQBjBBfTM3wjlZQMxfwo_lecV0fWLQB8QJxDBpzlJZ8yB8BxZqBj-VOkdaPB6yaqRYlTnJh25SyB0p9pEUmKG1ihY9A_4js-BqLv98Qj33wlXUq-LrQrr3q3by-j8ZTl_Qq5p_vYbqYaB8KiKxjYt9pWdOVpRHnERvny7I3RM8Vi7RrzTJDTJbtNi3iQr1y1tyb6fFeoAJ3PanFqr3a46LVQZ1nq0QmXfIXE7L9xnA5jgyTagoMogebHojTaAxu1VmBxlq7-4i-MuGdc7j8vucbm_m582wcbuZHSqfpk1MwLvE2knVdgMYgr8O2fwvifnOudO9wZxp7-Xi2-xVt27A3I-OkNuid6H-wwKz_JymFfevDjE5yim-tYthf9lyCEkpMTpbA6dZUPm2pxnyhdakZMdBWoped9e4gOJBxdND- -_l5VjlInNfnMDjvuFFwNXRlu5VGGQgOraZi9sUqjnRmJNaYo1mTICKxFIDEKQKvO4gojjwo5LRTjixTctoSVgRNl___fXd6yY66rZAUFe-v3SKrGJZzcrcCoHcDB1viJ7uvwqJWT9oG0kqnIV2QKHIFoCy7GlG1XtHbQJ7EaPViJ]--></g></svg>