<svg xmlns="http://www.w3.org/2000/svg" xmlns:xlink="http://www.w3.org/1999/xlink" contentStyleType="text/css" height="1585px" preserveAspectRatio="none" style="width:810px;height:1585px;background:#FFFFFF;" version="1.1" viewBox="0 0 810 1585" width="810px" zoomAndPan="magnify"><title>Coordinator session &#8212; handshake, liveness, module lifecycle</title><defs/><g><text fill="#000000" font-family="sans-serif" font-size="14" font-weight="bold" lengthAdjust="spacing" textLength="423.1905" x="189.7685" y="29.9659">Coordinator session &#8212; handshake, liveness, module lifecycle</text><rect fill="#DDDDDD" height="1526.9066" style="stroke:#181818;stroke-width:0.5;" width="343.699" x="310.4532" y="46.0679"/><text fill="#000000" font-family="sans-serif" font-size="13" font-weight="bold" lengthAdjust="spacing" textLength="69.55" x="447.5276" y="59.9649">wasp node</text><line style="stroke:#181818;stroke-width:0.5;stroke-dasharray:5.0,5.0;" x1="51" x2="51" y1="120.9098" y2="1578.9745"/><line style="stroke:#181818;stroke-width:0.5;stroke-dasharray:5.0,5.0;" x1="348.4532" x2="348.4532" y1="120.9098" y2="1578.9745"/><line style="stroke:#181818;stroke-width:0.5;stroke-dasharray:5.0,5.0;" x1="422.5852" x2="422.5852" y1="120.9098" y2="1578.9745"/><line style="stroke:#181818;stroke-width:0.5;stroke-dasharray:5.0,5.0;" x1="613.2764" x2="613.2764" y1="120.9098" y2="1578.9745"/><rect fill="#E2E2F0" height="33.0679" rx="2.5" ry="2.5" style="stroke:#181818;stroke-width:0.5;" width="93.6037" x="5" y="86.8419"/><text fill="#000000" font-family="sans-serif" font-size="14" lengthAdjust="spacing" textLength="79.6037" x="12" y="108.8078">Coordinator</text><rect fill="#E2E2F0" height="52.1358" rx="2.5" ry="2.5" style="stroke:#181818;stroke-width:0.5;" width="68.3338" x="314.4532" y="67.7739"/><text fill="#000000" font-family="sans-serif" font-size="14" lengthAdjust="spacing" textLength="54.3338" x="321.4532" y="89.7399">network</text><text fill="#000000" font-family="sans-serif" font-size="14" lengthAdjust="spacing" textLength="51.0578" x="323.0912" y="108.8078">handler</text><rect fill="#E2E2F0" height="33.0679" rx="2.5" ry="2.5" style="stroke:#181818;stroke-width:0.5;" width="52.0659" x="396.5852" y="86.8419"/><text fill="#000000" font-family="sans-serif" font-size="14" lengthAdjust="spacing" textLength="38.0659" x="403.5852" y="108.8078">agent</text><rect fill="#E2E2F0" height="52.1358" rx="2.5" ry="2.5" style="stroke:#181818;stroke-width:0.5;" width="71.8758" x="578.2764" y="67.7739"/><text fill="#000000" font-family="sans-serif" font-size="14" lengthAdjust="spacing" textLength="38.6539" x="594.8873" y="89.7399">wasm</text><text fill="#000000" font-family="sans-serif" font-size="14" lengthAdjust="spacing" textLength="57.8758" x="585.2764" y="108.8078">executor</text><rect fill="#EEEEEE" height="3" style="stroke:#EEEEEE;stroke-width:1.0;" width="803.7274" x="0" y="152.7628"/><line style="stroke:#000000;stroke-width:1.0;" x1="0" x2="803.7274" y1="152.7628" y2="152.7628"/><line style="stroke:#000000;stroke-width:1.0;" x1="0" x2="803.7274" y1="155.7628" y2="155.7628"/><rect fill="#EEEEEE" height="25.706" style="stroke:#000000;stroke-width:2.0;" width="159.0671" x="322.3301" y="140.9098"/><text fill="#000000" font-family="sans-serif" font-size="13" font-weight="bold" lengthAdjust="spacing" textLength="141.6871" x="328.3301" y="158.8068">Connect &amp; handshake</text><polygon fill="#181818" points="336.6201,196.3218,346.6201,200.3218,336.6201,204.3218,340.6201,200.3218" style="stroke:#181818;stroke-width:1.0;"/><line style="stroke:#181818;stroke-width:1.0;" x1="51.8019" x2="342.6201" y1="200.3218" y2="200.3218"/><text fill="#000000" font-family="sans-serif" font-size="13" lengthAdjust="spacing" textLength="111.7351" x="58.8019" y="194.5128">TCP connect :4242</text><path d="M254,213.3218 L254,258.3218 L441,258.3218 L441,223.3218 L431,213.3218 L254,213.3218 " fill="#FEFFDD" style="stroke:#181818;stroke-width:0.5;"/><path d="M431,213.3218 L431,223.3218 L441,223.3218 L431,213.3218 " fill="#FEFFDD" style="stroke:#181818;stroke-width:0.5;"/><text fill="#000000" font-family="sans-serif" font-size="13" lengthAdjust="spacing" textLength="91.9881" x="260" y="232.2188">LED goes solid;</text><text fill="#000000" font-family="sans-serif" font-size="13" lengthAdjust="spacing" textLength="132.3011" x="260" y="249.9248">ANNOUNCE now says</text><text fill="#000000" font-family="monospace" font-size="13" lengthAdjust="spacing" textLength="31.3066" x="395.6811" y="250.6679">busy</text><polygon fill="#181818" points="336.6201,283.4398,346.6201,287.4398,336.6201,291.4398,340.6201,287.4398" style="stroke:#181818;stroke-width:1.0;"/><line style="stroke:#181818;stroke-width:1.0;" x1="51.8019" x2="342.6201" y1="287.4398" y2="287.4398"/><text fill="#000000" font-family="sans-serif" font-size="13" lengthAdjust="spacing" textLength="103.7791" x="58.8019" y="281.6308">HELLO [proto v1]</text><polygon fill="#181818" points="410.6181,315.1459,420.6181,319.1459,410.6181,323.1459,414.6181,319.1459" style="stroke:#181818;stroke-width:1.0;"/><line style="stroke:#181818;stroke-width:1.0;" x1="348.6201" x2="416.6181" y1="319.1459" y2="319.1459"/><text fill="#000000" font-family="sans-serif" font-size="13" lengthAdjust="spacing" textLength="49.998" x="355.6201" y="313.3369">rx msgq</text><polygon fill="#181818" points="359.6201,346.8519,349.6201,350.8519,359.6201,354.8519,355.6201,350.8519" style="stroke:#181818;stroke-width:1.0;"/><line style="stroke:#181818;stroke-width:1.0;stroke-dasharray:2.0,2.0;" x1="353.6201" x2="421.6181" y1="350.8519" y2="350.8519"/><text fill="#000000" font-family="sans-serif" font-size="13" lengthAdjust="spacing" textLength="49.3221" x="365.6201" y="345.0429">tx msgq</text><polygon fill="#181818" points="62.8019,396.2639,52.8019,400.2639,62.8019,404.2639,58.8019,400.2639" style="stroke:#181818;stroke-width:1.0;"/><line style="stroke:#181818;stroke-width:1.0;stroke-dasharray:2.0,2.0;" x1="56.8019" x2="347.6201" y1="400.2639" y2="400.2639"/><text fill="#000000" font-family="sans-serif" font-size="13" lengthAdjust="spacing" textLength="209.9242" x="68.8019" y="376.7489">HELLO_ACK [v1][max payload u32]</text><text fill="#000000" font-family="sans-serif" font-size="13" lengthAdjust="spacing" textLength="272.8182" x="68.8019" y="394.4549">[features: 0x01 remote mem | 0x02 atomics]</text><rect fill="#EEEEEE" height="3" style="stroke:#EEEEEE;stroke-width:1.0;" width="803.7274" x="0" y="430.1169"/><line style="stroke:#000000;stroke-width:1.0;" x1="0" x2="803.7274" y1="430.1169" y2="430.1169"/><line style="stroke:#000000;stroke-width:1.0;" x1="0" x2="803.7274" y1="433.1169" y2="433.1169"/><rect fill="#EEEEEE" height="25.706" style="stroke:#000000;stroke-width:2.0;" width="72.916" x="365.4057" y="418.2639"/><text fill="#000000" font-family="sans-serif" font-size="13" font-weight="bold" lengthAdjust="spacing" textLength="55.536" x="371.4057" y="436.1609">Liveness</text><polygon fill="#181818" points="336.6201,473.6759,346.6201,477.6759,336.6201,481.6759,340.6201,477.6759" style="stroke:#181818;stroke-width:1.0;"/><line style="stroke:#181818;stroke-width:1.0;" x1="51.8019" x2="342.6201" y1="477.6759" y2="477.6759"/><text fill="#000000" font-family="sans-serif" font-size="13" lengthAdjust="spacing" textLength="117.3121" x="58.8019" y="471.8669">PING [any payload]</text><polygon fill="#181818" points="410.6181,505.382,420.6181,509.382,410.6181,513.382,414.6181,509.382" style="stroke:#181818;stroke-width:1.0;"/><line style="stroke:#181818;stroke-width:1.0;" x1="348.6201" x2="416.6181" y1="509.382" y2="509.382"/><text fill="#000000" font-family="sans-serif" font-size="13" lengthAdjust="spacing" textLength="49.998" x="355.6201" y="503.573">rx msgq</text><polygon fill="#181818" points="359.6201,537.088,349.6201,541.088,359.6201,545.088,355.6201,541.088" style="stroke:#181818;stroke-width:1.0;"/><line style="stroke:#181818;stroke-width:1.0;stroke-dasharray:2.0,2.0;" x1="353.6201" x2="421.6181" y1="541.088" y2="541.088"/><text fill="#000000" font-family="sans-serif" font-size="13" lengthAdjust="spacing" textLength="49.3221" x="365.6201" y="535.279">tx msgq</text><polygon fill="#181818" points="62.8019,568.794,52.8019,572.794,62.8019,576.794,58.8019,572.794" style="stroke:#181818;stroke-width:1.0;"/><line style="stroke:#181818;stroke-width:1.0;stroke-dasharray:2.0,2.0;" x1="56.8019" x2="347.6201" y1="572.794" y2="572.794"/><text fill="#000000" font-family="sans-serif" font-size="13" lengthAdjust="spacing" textLength="182.2861" x="68.8019" y="566.985">PONG [same payload echoed]</text><rect fill="#EEEEEE" height="3" style="stroke:#EEEEEE;stroke-width:1.0;" width="803.7274" x="0" y="602.647"/><line style="stroke:#000000;stroke-width:1.0;" x1="0" x2="803.7274" y1="602.647" y2="602.647"/><line style="stroke:#000000;stroke-width:1.0;" x1="0" x2="803.7274" y1="605.647" y2="605.647"/><rect fill="#EEEEEE" height="25.706" style="stroke:#000000;stroke-width:2.0;" width="112.6961" x="345.5157" y="590.794"/><text fill="#000000" font-family="sans-serif" font-size="13" font-weight="bold" lengthAdjust="spacing" textLength="95.3161" x="351.5157" y="608.691">Load a module</text><polygon fill="#181818" points="336.6201,646.206,346.6201,650.206,336.6201,654.206,340.6201,650.206" style="stroke:#181818;stroke-width:1.0;"/><line style="stroke:#181818;stroke-width:1.0;" x1="51.8019" x2="342.6201" y1="650.206" y2="650.206"/><text fill="#000000" font-family="sans-serif" font-size="13" lengthAdjust="spacing" textLength="188.8772" x="58.8019" y="644.397">LOAD_MODULE [.wasm binary]</text><polygon fill="#181818" points="410.6181,677.912,420.6181,681.912,410.6181,685.912,414.6181,681.912" style="stroke:#181818;stroke-width:1.0;"/><line style="stroke:#181818;stroke-width:1.0;" x1="348.6201" x2="416.6181" y1="681.912" y2="681.912"/><text fill="#000000" font-family="sans-serif" font-size="13" lengthAdjust="spacing" textLength="49.998" x="355.6201" y="676.103">rx msgq</text><polygon fill="#181818" points="602.2143,727.3241,612.2143,731.3241,602.2143,735.3241,606.2143,731.3241" style="stroke:#181818;stroke-width:1.0;"/><line style="stroke:#181818;stroke-width:1.0;" x1="422.6181" x2="608.2143" y1="731.3241" y2="731.3241"/><text fill="#000000" font-family="sans-serif" font-size="13" lengthAdjust="spacing" textLength="69.888" x="429.6181" y="707.8091">exec queue</text><text fill="#000000" font-family="sans-serif" font-size="13" lengthAdjust="spacing" textLength="167.5961" x="429.6181" y="725.5151">(payload ownership moves)</text><line style="stroke:#181818;stroke-width:1.0;" x1="614.2143" x2="656.2143" y1="763.0301" y2="763.0301"/><line style="stroke:#181818;stroke-width:1.0;" x1="656.2143" x2="656.2143" y1="763.0301" y2="776.0301"/><line style="stroke:#181818;stroke-width:1.0;" x1="615.2143" x2="656.2143" y1="776.0301" y2="776.0301"/><polygon fill="#181818" points="625.2143,772.0301,615.2143,776.0301,625.2143,780.0301,621.2143,776.0301" style="stroke:#181818;stroke-width:1.0;"/><text fill="#000000" font-family="sans-serif" font-size="13" lengthAdjust="spacing" textLength="149.3571" x="621.2143" y="757.2211">WAMR load + instantiate</text><polygon fill="#181818" points="359.6201,803.7361,349.6201,807.7361,359.6201,811.7361,355.6201,807.7361" style="stroke:#181818;stroke-width:1.0;"/><line style="stroke:#181818;stroke-width:1.0;stroke-dasharray:2.0,2.0;" x1="353.6201" x2="613.2143" y1="807.7361" y2="807.7361"/><text fill="#000000" font-family="sans-serif" font-size="13" lengthAdjust="spacing" textLength="49.3221" x="365.6201" y="801.9271">tx msgq</text><polygon fill="#181818" points="62.8019,835.4421,52.8019,839.4421,62.8019,843.4421,58.8019,839.4421" style="stroke:#181818;stroke-width:1.0;"/><line style="stroke:#181818;stroke-width:1.0;stroke-dasharray:2.0,2.0;" x1="56.8019" x2="347.6201" y1="839.4421" y2="839.4421"/><text fill="#000000" font-family="sans-serif" font-size="13" lengthAdjust="spacing" textLength="119.8341" x="68.8019" y="833.6331">RESULT (empty ack)</text><rect fill="#EEEEEE" height="3" style="stroke:#EEEEEE;stroke-width:1.0;" width="803.7274" x="0" y="869.2951"/><line style="stroke:#000000;stroke-width:1.0;" x1="0" x2="803.7274" y1="869.2951" y2="869.2951"/><line style="stroke:#000000;stroke-width:1.0;" x1="0" x2="803.7274" y1="872.2951" y2="872.2951"/><rect fill="#EEEEEE" height="25.706" style="stroke:#000000;stroke-width:2.0;" width="181.8951" x="310.9161" y="857.4421"/><text fill="#000000" font-family="sans-serif" font-size="13" font-weight="bold" lengthAdjust="spacing" textLength="164.5151" x="316.9161" y="875.3391">Call an exported function</text><polygon fill="#181818" points="336.6201,912.8542,346.6201,916.8542,336.6201,920.8542,340.6201,916.8542" style="stroke:#181818;stroke-width:1.0;"/><line style="stroke:#181818;stroke-width:1.0;" x1="51.8019" x2="342.6201" y1="916.8542" y2="916.8542"/><text fill="#000000" font-family="sans-serif" font-size="13" lengthAdjust="spacing" textLength="210.1192" x="58.8019" y="911.0452">CALL [name_len]["fib"][argc=1][20]</text><polygon fill="#181818" points="410.6181,944.5602,420.6181,948.5602,410.6181,952.5602,414.6181,948.5602" style="stroke:#181818;stroke-width:1.0;"/><line style="stroke:#181818;stroke-width:1.0;" x1="348.6201" x2="416.6181" y1="948.5602" y2="948.5602"/><text fill="#000000" font-family="sans-serif" font-size="13" lengthAdjust="spacing" textLength="49.998" x="355.6201" y="942.7512">rx msgq</text><polygon fill="#181818" points="602.2143,976.2662,612.2143,980.2662,602.2143,984.2662,606.2143,980.2662" style="stroke:#181818;stroke-width:1.0;"/><line style="stroke:#181818;stroke-width:1.0;" x1="422.6181" x2="608.2143" y1="980.2662" y2="980.2662"/><text fill="#000000" font-family="sans-serif" font-size="13" lengthAdjust="spacing" textLength="69.888" x="429.6181" y="974.4572">exec queue</text><line style="stroke:#181818;stroke-width:1.0;" x1="614.2143" x2="656.2143" y1="1029.6782" y2="1029.6782"/><line style="stroke:#181818;stroke-width:1.0;" x1="656.2143" x2="656.2143" y1="1029.6782" y2="1042.6782"/><line style="stroke:#181818;stroke-width:1.0;" x1="615.2143" x2="656.2143" y1="1042.6782" y2="1042.6782"/><polygon fill="#181818" points="625.2143,1038.6782,615.2143,1042.6782,625.2143,1046.6782,621.2143,1042.6782" style="stroke:#181818;stroke-width:1.0;"/><text fill="#000000" font-family="sans-serif" font-size="13" lengthAdjust="spacing" textLength="158.3141" x="621.2143" y="1006.1632">wasm_runtime_call_wasm</text><text fill="#000000" font-family="sans-serif" font-size="13" lengthAdjust="spacing" textLength="173.9792" x="621.2143" y="1023.8692">(signature checked: i32 only)</text><polygon fill="#181818" points="359.6201,1070.3842,349.6201,1074.3842,359.6201,1078.3842,355.6201,1074.3842" style="stroke:#181818;stroke-width:1.0;"/><line style="stroke:#181818;stroke-width:1.0;stroke-dasharray:2.0,2.0;" x1="353.6201" x2="613.2143" y1="1074.3842" y2="1074.3842"/><text fill="#000000" font-family="sans-serif" font-size="13" lengthAdjust="spacing" textLength="49.3221" x="365.6201" y="1068.5752">tx msgq</text><polygon fill="#181818" points="62.8019,1102.0903,52.8019,1106.0903,62.8019,1110.0903,58.8019,1106.0903" style="stroke:#181818;stroke-width:1.0;"/><line style="stroke:#181818;stroke-width:1.0;stroke-dasharray:2.0,2.0;" x1="56.8019" x2="347.6201" y1="1106.0903" y2="1106.0903"/><text fill="#000000" font-family="sans-serif" font-size="13" lengthAdjust="spacing" textLength="160.3682" x="68.8019" y="1100.2813">RESULT [nresults=1][6765]</text><path d="M56,1119.0903 L56,1182.0903 L320,1182.0903 L320,1129.0903 L310,1119.0903 L56,1119.0903 " fill="#FEFFDD" style="stroke:#181818;stroke-width:0.5;"/><path d="M310,1119.0903 L310,1129.0903 L320,1129.0903 L310,1119.0903 " fill="#FEFFDD" style="stroke:#181818;stroke-width:0.5;"/><text fill="#000000" font-family="sans-serif" font-size="13" lengthAdjust="spacing" textLength="243.8412" x="62" y="1137.9873">The module stays loaded &#8212; statics keep</text><text fill="#000000" font-family="sans-serif" font-size="13" lengthAdjust="spacing" textLength="239.9933" x="62" y="1155.6933">their values &#8212; until UNLOAD_MODULE,</text><text fill="#000000" font-family="sans-serif" font-size="13" lengthAdjust="spacing" textLength="201.1622" x="62" y="1173.3993">a replacement, or a node reboot.</text><rect fill="#EEEEEE" height="3" style="stroke:#EEEEEE;stroke-width:1.0;" width="803.7274" x="0" y="1209.0613"/><line style="stroke:#000000;stroke-width:1.0;" x1="0" x2="803.7274" y1="1209.0613" y2="1209.0613"/><line style="stroke:#000000;stroke-width:1.0;" x1="0" x2="803.7274" y1="1212.0613" y2="1212.0613"/><rect fill="#EEEEEE" height="25.706" style="stroke:#000000;stroke-width:2.0;" width="63.842" x="369.9427" y="1197.2083"/><text fill="#000000" font-family="sans-serif" font-size="13" font-weight="bold" lengthAdjust="spacing" textLength="46.462" x="375.9427" y="1215.1053">Unload</text><polygon fill="#181818" points="336.6201,1252.6203,346.6201,1256.6203,336.6201,1260.6203,340.6201,1256.6203" style="stroke:#181818;stroke-width:1.0;"/><line style="stroke:#181818;stroke-width:1.0;" x1="51.8019" x2="342.6201" y1="1256.6203" y2="1256.6203"/><text fill="#000000" font-family="sans-serif" font-size="13" lengthAdjust="spacing" textLength="114.8941" x="58.8019" y="1250.8113">UNLOAD_MODULE</text><polygon fill="#181818" points="410.6181,1284.3264,420.6181,1288.3264,410.6181,1292.3264,414.6181,1288.3264" style="stroke:#181818;stroke-width:1.0;"/><line style="stroke:#181818;stroke-width:1.0;" x1="348.6201" x2="416.6181" y1="1288.3264" y2="1288.3264"/><text fill="#000000" font-family="sans-serif" font-size="13" lengthAdjust="spacing" textLength="49.998" x="355.6201" y="1282.5174">rx msgq</text><polygon fill="#181818" points="602.2143,1316.0324,612.2143,1320.0324,602.2143,1324.0324,606.2143,1320.0324" style="stroke:#181818;stroke-width:1.0;"/><line style="stroke:#181818;stroke-width:1.0;" x1="422.6181" x2="608.2143" y1="1320.0324" y2="1320.0324"/><text fill="#000000" font-family="sans-serif" font-size="13" lengthAdjust="spacing" textLength="69.888" x="429.6181" y="1314.2234">exec queue</text><line style="stroke:#181818;stroke-width:1.0;" x1="614.2143" x2="656.2143" y1="1351.7384" y2="1351.7384"/><line style="stroke:#181818;stroke-width:1.0;" x1="656.2143" x2="656.2143" y1="1351.7384" y2="1364.7384"/><line style="stroke:#181818;stroke-width:1.0;" x1="615.2143" x2="656.2143" y1="1364.7384" y2="1364.7384"/><polygon fill="#181818" points="625.2143,1360.7384,615.2143,1364.7384,625.2143,1368.7384,621.2143,1364.7384" style="stroke:#181818;stroke-width:1.0;"/><text fill="#000000" font-family="sans-serif" font-size="13" lengthAdjust="spacing" textLength="175.5131" x="621.2143" y="1345.9294">teardown, free pool memory</text><polygon fill="#181818" points="359.6201,1392.4444,349.6201,1396.4444,359.6201,1400.4444,355.6201,1396.4444" style="stroke:#181818;stroke-width:1.0;"/><line style="stroke:#181818;stroke-width:1.0;stroke-dasharray:2.0,2.0;" x1="353.6201" x2="613.2143" y1="1396.4444" y2="1396.4444"/><text fill="#000000" font-family="sans-serif" font-size="13" lengthAdjust="spacing" textLength="49.3221" x="365.6201" y="1390.6354">tx msgq</text><polygon fill="#181818" points="62.8019,1424.1504,52.8019,1428.1504,62.8019,1432.1504,58.8019,1428.1504" style="stroke:#181818;stroke-width:1.0;"/><line style="stroke:#181818;stroke-width:1.0;stroke-dasharray:2.0,2.0;" x1="56.8019" x2="347.6201" y1="1428.1504" y2="1428.1504"/><text fill="#000000" font-family="sans-serif" font-size="13" lengthAdjust="spacing" textLength="119.8341" x="68.8019" y="1422.3414">RESULT (empty ack)</text><rect fill="#EEEEEE" height="3" style="stroke:#EEEEEE;stroke-width:1.0;" width="803.7274" x="0" y="1458.0034"/><line style="stroke:#000000;stroke-width:1.0;" x1="0" x2="803.7274" y1="1458.0034" y2="1458.0034"/><line style="stroke:#000000;stroke-width:1.0;" x1="0" x2="803.7274" y1="1461.0034" y2="1461.0034"/><rect fill="#EEEEEE" height="25.706" style="stroke:#000000;stroke-width:2.0;" width="89.244" x="357.2417" y="1446.1504"/><text fill="#000000" font-family="sans-serif" font-size="13" font-weight="bold" lengthAdjust="spacing" textLength="71.864" x="363.2417" y="1464.0474">Disconnect</text><polygon fill="#181818" points="336.6201,1501.5625,346.6201,1505.5625,336.6201,1509.5625,340.6201,1505.5625" style="stroke:#181818;stroke-width:1.0;"/><line style="stroke:#181818;stroke-width:1.0;" x1="51.8019" x2="342.6201" y1="1505.5625" y2="1505.5625"/><text fill="#000000" font-family="sans-serif" font-size="13" lengthAdjust="spacing" textLength="57.707" x="58.8019" y="1499.7535">TCP close</text><path d="M250,1518.5625 L250,1563.5625 L445,1563.5625 L445,1528.5625 L435,1518.5625 L250,1518.5625 " fill="#FEFFDD" style="stroke:#181818;stroke-width:0.5;"/><path d="M435,1518.5625 L435,1528.5625 L445,1528.5625 L435,1518.5625 " fill="#FEFFDD" style="stroke:#181818;stroke-width:0.5;"/><text fill="#000000" font-family="sans-serif" font-size="13" lengthAdjust="spacing" textLength="138.2161" x="256" y="1537.4595">LED back to heartbeat;</text><text fill="#000000" font-family="sans-serif" font-size="13" lengthAdjust="spacing" textLength="102.8041" x="256" y="1555.1655">ANNOUNCE says</text><text fill="#000000" font-family="monospace" font-size="13" lengthAdjust="spacing" textLength="31.3066" x="362.1841" y="1555.9086">free</text><text fill="#000000" font-family="sans-serif" font-size="13" lengthAdjust="spacing" textLength="33.969" x="396.8707" y="1555.1655">again</text><!--SRC=[dLJDQjj04BxhAGOTIaATa3Xf2YuE2DcqfOeSqfWUP6FMqiXQlDfLTbUs1Jtq8Vg4VPBEodOJanQINkVtcvblFikjG0YLqXcNp2eD1etXIiAl7p-XO38p1LjY1mHVeIHN1qgLrPGZU8vfamhq2fuXv4hPkTfuPibbnJGhWH8pjUPo0JaJ1ZsFp9Qdl6BIWl-afG_CGEXHDlXhPYgGAaF_C5oYNIkzd4W7IU0s9pwCOGkKjdK4XmugMauaRZ2jz-s67ieC762ltwVvfSJKmfl7YQ7VzxmGJguXXXxSXxUGxe9wbztBhYULHL0hrAq_6WvWeT20KO9d7oOoYEFHE0w7DCiQ36iC-FwyDetlFnRzD8oY4IILLbR1wdpgnSuJa4Tle3IB1o-0arsitLdYrXBkisT1-0KIoarAje6ADKAn3EgBxdGYanoPhJMQ7fnjpiv1O-ambrZ2TsVf0Ys_vAcPjZk8TWS-7FpsS_mH4YQRVV5NehmTkNp3Ilo33jD2ORPhwWniJwc3pj4e6CnkHeDnD8Jar9qGviGNtVmTmJKCoU1k30yrrZYHH_k6QYrHcu9Nr6U5vjWRxiE_1JTtqCQy1IwD9RPmPj45_7EYk-7NSNGFHrXMjW6MBe-t569209E4e5BQOWPvBLFh7kbWgZ288aWaxMCcK4uJF-TpVvemlKZxTCNksSkcUnp1BMQcQm9E9LC2CTko_SZmXMpl3sc1wHAp7l2BBYWfckEN39X8eaujh76uhjvVlPjkEQ_veh2WSlfOWFi2zyUZxH7BtJ9fU2SUPA0NDB14h2ZK5iWrh9YewKsSts4MC8wV7Bf3SOo8MWcMOadVt05I9DOA0fddf36dxUCw9EtQnx8zty6E3qg-SfqMcIRLaXt8DH9dbHBkOvHk_eSK0sxsgl5SJeGYKNmk8tFA1XA4Wf3OERtmKpNPAOd3vfEEBHYNlm40]--></g></svg>